<svg width="64" height="64" viewBox="0 0 64 64" fill="none" xmlns="http://www.w3.org/2000/svg">
  <rect width="64" height="64" rx="4" fill="#0f0f12"/>
  <g transform="translate(12, 21.3) scale(1.43)">
    <path d="M20 5.5V3C20 2.73478 19.8946 2.48051 19.707 2.29297C19.5195 2.10543 19.2652 2 19 2H3C2.73478 2 2.4805 2.10543 2.29297 2.29297C2.10543 2.4805 2 2.73478 2 3V11C2 11.2652 2.10543 11.5195 2.29297 11.707C2.48051 11.8946 2.73478 12 3 12H16C16.5523 12 17 12.4477 17 13C17 13.5523 16.5523 14 16 14H3C2.20435 14 1.44152 13.6837 0.878906 13.1211C0.316297 12.5585 0 11.7956 0 11V3C0 2.20435 0.316297 1.44152 0.878906 0.878906C1.44152 0.316297 2.20435 0 3 0H19C19.7957 0 20.5585 0.316297 21.1211 0.878906C21.6837 1.44152 22 2.20435 22 3V5.5C22 6.05228 21.5523 6.5 21 6.5C20.4477 6.5 20 6.05228 20 5.5Z" fill="white"/>
    <path d="M4 5.00977V5C4 4.44772 4.44772 4 5 4C5.55228 4 6 4.44772 6 5V5.00977C6 5.56205 5.55228 6.00977 5 6.00977C4.44772 6.00977 4 5.56205 4 5.00977Z" fill="white"/>
    <path d="M8 5.00977V5C8 4.44772 8.44772 4 9 4C9.55228 4 10 4.44772 10 5V5.00977C10 5.56205 9.55228 6.00977 9 6.00977C8.44772 6.00977 8 5.56205 8 5.00977Z" fill="white"/>
    <path d="M12 5.00977V5C12 4.44772 12.4477 4 13 4C13.5523 4 14 4.44772 14 5V5.00977C14 5.56205 13.5523 6.00977 13 6.00977C12.4477 6.00977 12 5.56205 12 5.00977Z" fill="white"/>
    <path d="M16 5.00977V5C16 4.44772 16.4477 4 17 4C17.5523 4 18 4.44772 18 5V5.00977C18 5.56205 17.5523 6.00977 17 6.00977C16.4477 6.00977 16 5.56205 16 5.00977Z" fill="white"/>
    <path d="M4 9.00977V9C4 8.44772 4.44772 8 5 8C5.55228 8 6 8.44772 6 9V9.00977C6 9.56205 5.55228 10.0098 5 10.0098C4.44772 10.0098 4 9.56205 4 9.00977Z" fill="white"/>
    <path d="M16 9.00977V9C16 8.44772 16.4477 8 17 8C17.5523 8 18 8.44772 18 9V9.00977C18 9.56205 17.5523 10.0098 17 10.0098C16.4477 10.0098 16 9.56205 16 9.00977Z" fill="white"/>
    <path d="M13.0029 8.00977C13.555 8.01138 14.0014 8.46056 14 9.0127C13.9985 9.56489 13.5493 10.0111 12.9971 10.0098L8.99707 10C8.44499 9.99839 7.99862 9.54921 8 8.99707C8.00162 8.44499 8.45079 7.99862 9.00293 8L13.0029 8.00977Z" fill="white"/>
    <path d="M26.0049 9.10059C26.0049 8.95612 25.9762 8.81219 25.9209 8.67871C25.8656 8.54544 25.7846 8.42429 25.6826 8.32227C25.5805 8.22023 25.4595 8.13925 25.3262 8.08398C25.1928 8.02873 25.0496 8.00004 24.9053 8C24.7609 8 24.6178 8.02876 24.4844 8.08398C24.3509 8.13927 24.2291 8.22011 24.127 8.32227L24.124 8.3252L21 11.4209V13.0049H22.583L25.6797 9.88086L25.6826 9.87793C25.7846 9.7759 25.8656 9.65476 25.9209 9.52148C25.9761 9.38816 26.0048 9.24489 26.0049 9.10059ZM28.0049 9.10059C28.0048 9.50738 27.9251 9.91028 27.7695 10.2861C27.6143 10.6608 27.3859 11.0009 27.0996 11.2881L27.1006 11.2891L23.71 14.709C23.5222 14.8984 23.2667 15.0049 23 15.0049H20C19.4477 15.0049 19 14.5572 19 14.0049V11.0049C19.0001 10.7383 19.1066 10.4826 19.2959 10.2949L22.7158 6.90527C23.0031 6.61874 23.3439 6.39161 23.7188 6.23633C24.0949 6.08053 24.4982 6 24.9053 6C25.3123 6.00004 25.7158 6.08057 26.0918 6.23633C26.4677 6.3921 26.809 6.62051 27.0967 6.9082C27.3846 7.19608 27.6137 7.53794 27.7695 7.91406C27.9252 8.29006 28.0049 8.69362 28.0049 9.10059Z" fill="white"/>
  </g>
</svg>
